<?xml version="1.0" standalone="no"?><!DOCTYPE svg PUBLIC "-//W3C//DTD SVG 1.1//EN" "http://www.w3.org/Graphics/SVG/1.1/DTD/svg11.dtd"><svg t="1575015689904" class="icon" viewBox="0 0 1024 1024" version="1.1" xmlns="http://www.w3.org/2000/svg" p-id="6289" width="32" height="32" xmlns:xlink="http://www.w3.org/1999/xlink"><defs><style type="text/css"></style></defs><path d="M816.9 133.6h-79.2v-32.1c0-20.8-16.8-37.6-37.6-37.6s-37.6 16.8-37.6 37.6v32.1H361.7v-32.1c0-20.8-16.8-37.6-37.6-37.6s-37.6 16.8-37.6 37.6v32.1h-79.4c-62.2 0-112.8 50.6-112.8 112.8v600.5c0 62.2 50.6 112.8 112.8 112.8H817c62.2 0 112.8-50.6 112.8-112.8V246.4c-0.1-62.2-50.7-112.8-112.9-112.8z m-609.8 75.2h79.4v47.8c0 20.8 16.8 37.6 37.6 37.6s37.6-16.8 37.6-37.6v-47.8h300.8v47.8c0 20.8 16.8 37.6 37.6 37.6s37.6-16.8 37.6-37.6v-47.8h79.2c20.7 0 37.6 16.9 37.6 37.6v88.1h-685v-88.1c0-20.7 16.8-37.6 37.6-37.6z m609.8 675.7H207.1c-20.7 0-37.6-16.9-37.6-37.6V409.8h685.1V847c-0.1 20.6-16.9 37.5-37.7 37.5z" p-id="6290" fill="#712f85"></path><path d="M727.2 498.3H275.9c-20.8 0-37.6 16.8-37.6 37.6s16.8 37.6 37.6 37.6h451.3c20.8 0 37.6-16.8 37.6-37.6s-16.9-37.6-37.6-37.6zM727.2 680.4H275.9c-20.8 0-37.6 16.8-37.6 37.6s16.8 37.6 37.6 37.6h451.3c20.8 0 37.6-16.8 37.6-37.6s-16.9-37.6-37.6-37.6z" p-id="6291" fill="#712f85"></path></svg>