<?xml version="1.0" standalone="no"?><!DOCTYPE svg PUBLIC "-//W3C//DTD SVG 1.1//EN" "http://www.w3.org/Graphics/SVG/1.1/DTD/svg11.dtd"><svg class="icon" width="200px" height="200.00px" viewBox="0 0 1024 1024" version="1.1" xmlns="http://www.w3.org/2000/svg"><path fill="#a75fa2" d="M627.958519 896c-5.594074 0-10.998519-2.180741-15.075556-6.257778L416.805926 693.76c-8.343704-8.343704-8.343704-21.807407 0-30.151111s21.807407-8.343704 30.151111 0l171.804444 171.804444 224.237038-651.662222-651.567408 224.237037 152.082963 152.082963c8.343704 8.343704 8.343704 21.807407 0 30.151111s-21.807407 8.343704-30.151111 0L137.102222 414.056296c-5.214815-5.214815-7.395556-12.705185-5.688889-19.911111 1.611852-7.205926 6.921481-12.98963 13.842963-15.36l725.333334-249.552592c7.68-2.654815 16.213333-0.663704 21.997037 5.12 5.783704 5.783704 7.774815 14.317037 5.12 21.997037l-249.552593 725.333333c-2.37037 6.921481-8.248889 12.231111-15.36 13.842963-1.706667 0.284444-3.318519 0.474074-4.835555 0.474074zM328.628148 792.367407c-3.223704 0-6.542222-0.758519-9.576296-2.275555-7.205926-3.602963-11.757037-10.998519-11.757037-19.057778V573.914074c0-6.921481 3.318519-13.368889 8.912592-17.351111l372.053334-265.955556c9.576296-6.826667 22.945185-4.645926 29.771852 4.930371 6.826667 9.576296 4.645926 22.945185-4.930371 29.771852l-363.140741 259.602963v143.454814l38.684445-28.918518c9.386667-7.016296 22.85037-5.12 29.866667 4.266667 7.016296 9.386667 5.12 22.755556-4.266667 29.866666l-72.817778 54.518519c-3.792593 2.74963-8.343704 4.266667-12.8 4.266666z" /></svg>