<?xml version="1.0" standalone="no"?><!DOCTYPE svg PUBLIC "-//W3C//DTD SVG 1.1//EN" "http://www.w3.org/Graphics/SVG/1.1/DTD/svg11.dtd"><svg class="icon" width="200px" height="200.00px" viewBox="0 0 1024 1024" version="1.1" xmlns="http://www.w3.org/2000/svg"><path fill="#bfbfbf" d="M851.968 503.808 532.48 503.808 532.48 188.416c0-12.288-8.192-20.48-20.48-20.48S491.52 176.128 491.52 188.416l0 319.488L172.032 507.904c-12.288 0-20.48 8.192-20.48 20.48s8.192 20.48 20.48 20.48L491.52 548.864l0 319.488c0 12.288 8.192 20.48 20.48 20.48s20.48-8.192 20.48-20.48l0-319.488 319.488 0c12.288 0 20.48-8.192 20.48-20.48S864.256 503.808 851.968 503.808z" /></svg>