<?xml version="1.0" standalone="no"?><!DOCTYPE svg PUBLIC "-//W3C//DTD SVG 1.1//EN" "http://www.w3.org/Graphics/SVG/1.1/DTD/svg11.dtd"><svg t="1575016157719" class="icon" viewBox="0 0 1024 1024" version="1.1" xmlns="http://www.w3.org/2000/svg" p-id="7884" width="32" height="32" xmlns:xlink="http://www.w3.org/1999/xlink"><defs><style type="text/css"></style></defs><path d="M872.576 66.56c-2.688-1.088-20.864-1.28-23.616-1.664C848.384 64.832 832 64.576 832 64.576L832 64.256C832 64.128 859.008 64 857.152 64L97.6 64l0 0C89.152 64 80.576 67.264 74.048 73.792c-12.992 12.992-12.352 34.048 0.64 47.04L320 365.568l0 563.008c0 2.752 0.32 5.248 0.96 7.808 0.256 0.64-0.192 1.28 0.064 1.856 4.16 12.864 15.616 22.336 29.888 22.336 9.472 0 17.728-4.288 23.552-10.88 0.256-0.192 0.512-0.256 0.704-0.448l252.288-252.352c0.192-0.192 0.896-0.448 1.088-0.64 6.592-5.888 11.52-14.144 11.52-23.68L640.064 365.568l244.032-244.672c0.192-0.192-0.064-0.448 0.128-0.64 6.592-5.888 10.688-14.144 10.688-23.68C894.848 82.368 885.376 70.72 872.576 66.56zM576 655.424l-192 192L384 384l192 0L576 655.424zM589.632 320 367.872 320l-192-192 605.76 0L589.632 320z" p-id="7885" fill="#712f85"></path></svg>