<?xml version="1.0" standalone="no"?><!DOCTYPE svg PUBLIC "-//W3C//DTD SVG 1.1//EN" "http://www.w3.org/Graphics/SVG/1.1/DTD/svg11.dtd"><svg class="icon" width="200px" height="200.00px" viewBox="0 0 1024 1024" version="1.1" xmlns="http://www.w3.org/2000/svg"><path fill="#ffffff" d="M789.9 186.8h-2.6l-2.4 1c-4.7 2-16.4 6-23.2 6h-0.5c-7-0.2-15.6-1.9-22.4-3.5v-6.6c0-11.6-9.4-21-21-21H234.1c-11.6 0-21 9.4-21 21v656.5c0 11.6 9.4 21 21 21h483.7c11.6 0 21-9.4 21-21v-5.1c6.4-0.7 14.4-1.3 21.5-1 15.6 0.7 27.2 2.8 27.3 2.8l1.2 0.2h1.2c11.6 0 21-9.4 21-21V207.8c-0.1-11.6-9.5-21-21.1-21z m-77.1 648.5H239.1V188.7h473.7v646.6z m72.1-25c-5.5-0.7-13.8-1.7-23.6-2.1-7.6-0.3-15.6 0.2-22.5 0.8V216.9c6.9 1.4 14.7 2.6 21.6 2.8 8.1 0.2 17.5-2.1 24.5-4.3v594.9z"  /><path fill="#ffffff" d="M338.9 462h274c7.2 0 13-5.8 13-13s-5.8-13-13-13h-274c-7.2 0-13 5.8-13 13s5.9 13 13 13zM338.9 588h274c7.2 0 13-5.8 13-13s-5.8-13-13-13h-274c-7.2 0-13 5.8-13 13s5.9 13 13 13z"  /></svg>