<?xml version="1.0" standalone="no"?><!DOCTYPE svg PUBLIC "-//W3C//DTD SVG 1.1//EN" "http://www.w3.org/Graphics/SVG/1.1/DTD/svg11.dtd"><svg class="icon" width="200px" height="200.00px" viewBox="0 0 1024 1024" version="1.1" xmlns="http://www.w3.org/2000/svg"><path fill="#707070" d="M424.74972112 530.33637489c-73.17077811 0-131.43504675-59.57740346-131.43504675-131.43504675s59.57740346-132.79681597 131.43504676-132.79681531 131.43504675 59.57740346 131.43504674 131.43504609a132.45637334 132.45637334 0 0 1-29.81301893 84.01629746c-9.48375012 12.15865351-8.13413933 28.45124971 4.06099014 37.94715827s28.45124971 8.13413933 37.94715826-4.06099078c27.10163893-33.87400906 43.35775918-75.8821581 43.35775918-119.23991665C611.74981495 295.90537267 527.73351815 211.90123431 424.74972112 211.90123431S239.11139652 295.9175311 239.11139652 397.53955892c0 62.33741785 31.16262971 116.52853729 77.24392666 150.41470543C197.10324811 591.25123006 109.02596054 701.06819003 100.89182119 833.86500602c-1.34961078 14.90650946 9.48375012 28.45124971 24.39025895 28.4512497 14.90650946 1.34961078 28.45124971-10.84551933 28.45124971-25.7520288 9.48375012-142.25624857 128.73582518-253.39850181 271.01639127-253.39850181s261.53264116 111.13009481 271.01639127 253.4106609c1.34961078 14.90650946 12.15865351 25.75202879 27.10163894 25.75202814h1.34961077a28.14728304 28.14728304 0 0 0 25.75202817-28.4512497C739.12387157 663.13319085 595.49369535 530.33637489 424.74972112 530.33637489zM682.20921371 347.39727119c60.97564864 0 109.75616716 50.14228774 109.75616651 109.75616716 0 25.75202879-9.48375012 50.14228774-25.75202815 70.52019157-9.48375012 12.15865351-8.13413933 28.45124971 4.06099013 37.94715827 5.42275935 4.06099013 10.84551933 6.77237012 17.61788945 6.77237014 8.13413933 0 14.90650946-2.71138 20.32926882-9.48375013 24.39025958-29.81301893 37.94715826-66.39840798 37.94715826-104.33340718 1.34961078-92.1382777-73.17077811-165.3576902-163.95944502-165.35769081a27.10163893 27.10163893 0 1 0 0 54.2032785z m74.53254668 230.35785301c-14.90650946-4.06099013-29.81301893 4.06099013-33.87400906 18.96750024s4.06099013 29.81301893 18.9674996 33.87400906c94.83749861 25.75202879 162.60983488 108.40655638 169.38220501 207.31720419 1.34961078 14.90650946 12.15865351 25.75202879 27.10163894 25.75202881h1.34961077a28.14728304 28.14728304 0 0 0 25.7520288-28.45124971c-6.77237012-123.30090741-90.80082601-226.28470443-208.67897406-257.45949259z"  /></svg>