<?xml version="1.0" standalone="no"?><!DOCTYPE svg PUBLIC "-//W3C//DTD SVG 1.1//EN" "http://www.w3.org/Graphics/SVG/1.1/DTD/svg11.dtd"><svg class="icon" width="200px" height="200.00px" viewBox="0 0 1024 1024" version="1.1" xmlns="http://www.w3.org/2000/svg"><path fill="#ffffff" d="M514.133333 637.866667c85.333333 0 155.733333-70.4 155.733334-155.733334v-206.933333c0-85.333333-70.4-155.733333-155.733334-155.733333s-155.733333 70.4-155.733333 155.733333v206.933333c0 85.333333 68.266667 155.733333 155.733333 155.733334zM693.333333 870.4h-153.6V759.466667c138.666667-12.8 249.6-128 249.6-270.933334 0-14.933333-12.8-27.733333-27.733333-27.733333-14.933333 0-27.733333 12.8-27.733333 27.733333-2.133333 121.6-100.266667 219.733333-221.866667 219.733334s-221.866667-98.133333-221.866667-221.866667c0-14.933333-12.8-27.733333-27.733333-27.733333s-27.733333 12.8-27.733333 27.733333c0 142.933333 110.933333 260.266667 247.466666 273.066667V870.4h-153.6c-14.933333 0-27.733333 12.8-27.733333 27.733333s12.8 27.733333 27.733333 27.733334h358.4c14.933333 0 27.733333-12.8 27.733334-27.733334s-6.4-27.733333-21.333334-27.733333z" /></svg>